<?xml version="1.0" encoding="utf-8"?>
<!-- Generator: Adobe Illustrator 16.0.0, SVG Export Plug-In . SVG Version: 6.00 Build 0)  -->
<!DOCTYPE svg PUBLIC "-//W3C//DTD SVG 1.1//EN" "http://www.w3.org/Graphics/SVG/1.1/DTD/svg11.dtd">
<svg version="1.1" id="Layer_1" xmlns="http://www.w3.org/2000/svg" xmlns:xlink="http://www.w3.org/1999/xlink" x="0px" y="0px"
	 width="364.999px" height="385.313px" viewBox="-60.215 2.063 364.999 385.313"
	 enable-background="new -60.215 2.063 364.999 385.313" xml:space="preserve">
<g id="main">
	<path fill="#DF5050" d="M252.818,141.292c-1.533-6.289-6.152-11.87-13.541-16.431c5.527-11.63,6.637-23.721,3.1-34.729
		c-3.186-10.443-11.393-20.234-23.869-28.397C206.1,53.94,191.417,47.21,176.025,42.975c-5.483-1.538-3.685-1.044-5.483-1.538
		c-2.886-10.228-10.667-19.72-23.237-28.289c-10.339-7.049-34.384-10.923-34.8-11.085c0,0,12.294,16.46,11.722,22.271
		c-0.314,3.138-0.369,5.446-1.308,8.24c-1.475-0.176-2.985-0.319-4.532-0.413c-6.854-0.754-12.904-1.123-18.488-1.123
		c-16.118,0-28.291,3.055-37.199,9.346C52.254,47.396,47.123,58.294,48.276,70.11c-12.062,3.75-29.428,11.552-36.151,26.415
		c-4.568,9.68-3.584,20.65,2.346,30.312c-5.82,4.234-9.385,9.188-10.637,14.81c-1.042,4.652-0.853,11.926,5.922,20.22
		c1.109,1.497,15.362,21.329,29.987,63.513c0.987,3.738,7.908,27.37,27.51,33.808c4.344,2.121,27.898,12.877,60.048,12.877
		c37.526,0,57.709-10.215,62.504-12.991c19.356-6.581,26.205-29.966,27.182-33.687c14.664-42.281,28.951-62.117,29.986-63.517
		C253.863,153.42,253.958,146.021,252.818,141.292z M240.906,156.288c0,0-15.481,20.198-31.424,66.276
		c0,0-5.567,23.291-22.698,28.473c0,0-18.571,12.314-59.136,12.314c-33.351,0-57-12.314-57-12.314
		c-17.143-5.182-22.71-28.473-22.71-28.473C32,176.482,16.52,156.288,16.52,156.288c-12.36-14.927,2.179-24.209,11.689-28.227
		l-0.724-0.579c-9.759-8.513-13.869-20.129-8.949-30.544c5.411-11.952,21.525-20.183,38.456-24.024
		c-3.501-9.883-1.837-21.381,9.323-28.826c12.836-9.108,33.452-8.697,50.414-6.812c-2.852,1.355-6.766,2.375-8.117,4.702
		c-0.758,2.921,4.78,3.793,8.047,3.506c5.601-0.234,9.118-3.656,10.555-7c2.795-6.765,4.407-10.914,4.203-18.047
		c0.396-2.431-4.114-10.498-6.408-11.393c0,0,35.23,12.042,37.517,35.984l0.041-0.202c0.516,5.751-0.479,11.105-3.267,16.873
		c-3.396,6.717-8.264,10.976-16.505,13.402c-18.302,5.739-38.896,4.656-58.495,4.768c13.281,6.634,30.147,8.848,46.349,9.03
		c14.438,0.017,29.729-2.406,40.459-9.318c7.011-4.672,12.201-10.856,13.604-17.487c0.722-4.266-1.403-8.156-4.576-11.708
		c12.057,3.915,23.288,9.102,33.072,15.253c6.099,3.985,11.396,8.67,15.2,13.827c1.124,7.745-4.053,12.583-10.213,17.693
		c-19.045,15.812-30.954,18.395-51.716,23.108c-29.431,6.894-61.748,7.939-92.099,2.974c-16.65-2.723-30.413-7.934-45.898-17.081
		c1.958,4.457,10.057,12.043,20.507,16.954c14.167,6.655,14.644,6.795,39.526,13.075c22.035,5.559,45.801,5.559,68.656,2.692
		c23.841-2.58,44.642-9.2,63.222-22.938c6.024-4.609,13.189-14.281,13.938-24.952c4.558,10.252,1.146,24.985-5.638,31.387
		c-1.475,1.422-3.123,2.724-4.906,3.931C230.896,128.651,255.684,138.43,240.906,156.288z"/>
	<path fill="#DF5050" d="M132.331,169.945c26.681-0.764,60.562-7.061,60.562-7.061c57.647-12.428,40.814-25.371,40.814-25.371
		c-4.729-3.028-10.271-5.498-16.312-7.521c-13.834,6.709-33.008,9.656-50.386,12.081c-27.61,3.897-61.799,3.586-92.095-1.662
		c-13.261-2.045-25.708-5.713-37.949-9.647c-5.174,1.873-9.946,4.098-14.081,6.744c0,0-16.833,12.942,40.811,25.369
		c0,0,33.515,6.296,60.178,7.062L132.331,169.945L132.331,169.945z"/>
</g>
<g>
	<path fill="#DF5050" d="M7.332,386.017c-0.681,1.136-1.25,1.359-1.706,1.359c-2.842,0-5.912-4.082-5.912-7.819
		c0-9.864,8.301-47.16,8.301-47.16c0.114-0.34,0.114-0.566,0.114-0.68c0-0.453-0.341-0.453-0.341-0.453H7.675
		c-0.457,0-1.479,0.905-1.479,0.905c-21.264,21.769-41.164,52.488-41.164,52.488c-0.569,1.135-1.252,1.359-1.706,1.359
		c-2.955,0-5.004-4.873-5.004-5.896c0-1.02,0.342-1.699,0.342-1.699c7.165-20.178,24.106-68.697,24.106-69.604
		c0-1.473-1.136-1.812-2.386-1.812c-7.28,0-31.615,13.943-31.615,19.838c0,2.607,3.866,2.607,6.141,2.607
		c6.709,0,14.896-2.494,15.237-2.494c0.342,0,0.57,0.114,0.57,0.342c0,0.113-0.113,0.453-0.455,0.791c0,0-9.326,7.484-26.268,7.484
		c0,0-4.209-0.228-4.209-3.289c0.001-8.166,30.477-30.723,47.534-30.723c2.502,0,5.572,0.678,5.686,4.534
		c0,0.678-0.228,2.038-1.251,5.101c0,0-9.21,27.208-20.239,54.643c0,0.339,0.113,1.021,0.454,1.021c0.114,0,0.341-0.113,0.682-0.564
		c0,0,33.092-42.174,40.254-46.709c0,0,2.163-2.151,7.278-2.151h0.342c0,0,0.797,0.112,0.797,0.905l-0.115,0.455
		c0,0-6.139,18.14-11.37,52.147c0,0.452,0.113,1.359,0.569,1.359c0.114,0,0.228,0,0.454-0.229c0,0,4.322-6.009,10.576-15.529
		c14.556-19.5,35.023-54.303,64.93-54.526c0,0,0.683,0.227,0.683,0.565c0,0.227-0.228,0.34-0.91,0.68
		C44.745,319.927,7.332,386.017,7.332,386.017z"/>
	<path fill="#DF5050" d="M42.704,361.418c-0.341,1.477-0.456,2.945-0.456,4.082c0,4.647,1.935,9.522,8.983,9.522
		c9.667,0,19.787-9.183,25.473-20.065l1.366,1.021c-6.141,13.604-17.968,22.335-29.224,22.335c-9.21,0-13.875-5.783-13.875-13.15
		c0-13.492,15.465-32.647,28.883-32.647c3.525,0,7.05,1.358,7.05,6.915C70.904,350.988,55.666,360.172,42.704,361.418z
		 M43.272,359.265c8.074-2.835,22.629-10.885,22.629-20.635c0-1.698-0.455-2.605-2.388-2.605
		C56.236,336.023,46.342,348.494,43.272,359.265z"/>
	<path fill="#DF5050" d="M81.027,366.634c0,6.235,1.706,10.655,6.255,10.655c4.322,0,9.553-3.97,12.509-9.521
		c-5.57-2.834-8.3-8.957-8.3-14.624c0-7.255,4.435-12.018,9.551-12.018c4.322,0,7.164,3.629,7.164,10.428
		c0,4.99-1.479,10.433-3.979,15.419c0.91,0.229,1.934,0.342,2.956,0.342c8.073,0,11.939-7.144,14.556-12.357l1.363,1.476
		c-4.32,10.429-10.462,12.924-16.261,12.924c-1.252,0-2.5-0.113-3.639-0.338c-4.094,6.911-10.121,12.581-18.08,12.581
		c-7.846,0-11.713-5.555-11.713-14.282c-0.001-22.785,26.039-74.937,35.366-74.937c2.499,0,3.64,3.969,3.64,7.143
		c0,10.544-12.509,35.144-25.93,43.191C85.122,345.207,81.027,357.108,81.027,366.634z M87.737,338.291
		c10.462-8.39,20.81-30.041,20.81-35.822c0-0.682-0.113-0.905-0.454-0.905C105.589,301.562,92.967,320.946,87.737,338.291z
		 M100.928,365.5c1.592-3.4,2.615-7.369,2.615-11.45c0-5.216-1.593-8.503-3.753-8.503c-2.276,0-4.321,3.517-4.321,8.162
		C95.47,357.791,96.949,362.891,100.928,365.5z"/>
	<path fill="#DF5050" d="M151.875,343.392c0,4.422-2.162,8.273-5.688,8.273c-1.137,0-2.271-0.451-3.297-1.697
		c2.271-1.137,4.207-5.559,4.207-8.956c0-1.814-0.568-2.835-2.5-2.835c-8.074,0-18.652,16.664-18.652,27.773
		c0,4.646,1.822,9.409,8.303,9.409c8.982,0,19.219-7.937,24.109-20.521l1.477,1.134c-5.229,13.717-17.168,23.693-28.201,23.693
		c-7.278,0-12.737-4.763-12.737-14.512c0-15.188,13.307-30.154,24.905-30.154C150.057,335.004,151.875,339.426,151.875,343.392z"/>
	<path fill="#DF5050" d="M192.699,352.123c0,2.607-6.594,10.315-6.594,15.756c0,2.27,1.135,4.99,3.862,4.99
		c4.099,0,11.373-5.896,18.195-17.914l1.137,1.135c-4.774,12.242-14.442,20.633-22.516,20.633c-5.57,0-8.186-3.969-8.186-7.938
		c0-0.906,0.113-2.039,0.338-3.287c-6.594,8.729-11.6,13.147-17.17,13.147c-4.775,0-8.414-3.059-8.414-9.407
		c0-13.49,16.715-34.804,31.496-34.804c5.916,0,10.353,3.398,10.353,8.502c0,3.741-2.275,4.874-5.57,4.874
		c0.338-1.246,0.563-2.722,0.563-3.967c0-3.401-1.475-6.349-5.567-6.349c-10.691,0-23.426,21.084-23.426,32.08
		c0,3.062,1.025,4.422,3.072,4.422c7.049,0,18.307-16.552,23.876-24.713C189.516,349.515,192.699,350.422,192.699,352.123z"/>
	<path fill="#DF5050" d="M242.736,346.342c0-3.178-2.729-5.104-5.687-5.104c-13.42,0-21.377,31.062-22.743,33.557
		c-0.796,1.358-2.5,2.039-3.865,2.039c-3.863,0-3.978-5.44-3.978-10.655c0-23.693,26.381-73.8,34.453-73.8
		c2.049,0,3.524,3.289,3.524,7.369c0,10.429-9.778,26.867-23.194,34.916c-5.009,12.242-7.509,24.602-7.509,32.42
		c4.775-12.017,14.103-31.74,25.476-31.74c5.57,0,10.119,4.533,10.119,10.093c0,9.747-11.711,13.262-16.146,13.262
		c0.338,2.493,2.842,14.622,8.869,14.622c6.479,0,12.166-8.161,16.827-18.478l1.138,1.134c-3.297,11.107-12.279,21.65-20.242,21.65
		c-8.641,0-11.598-13.489-11.598-20.401C231.592,357.225,242.736,354.05,242.736,346.342z M223.18,330.131
		c10.459-8.391,17.396-21.766,17.396-27.549c0-0.793-0.113-1.02-0.342-1.02C237.961,301.562,229.773,314.938,223.18,330.131z"/>
	<path fill="#DF5050" d="M262.984,361.418c-0.344,1.477-0.457,2.945-0.457,4.082c0,4.647,1.932,9.522,8.981,9.522
		c9.668,0,21.025-12.393,33.275-20.104v1.336c-14.164,10.8-24.404,22.058-35.664,22.058c-9.211,0-13.873-5.783-13.873-13.15
		c0-13.492,15.467-32.647,28.885-32.647c3.522,0,7.052,1.358,7.052,6.913C291.184,350.988,275.945,360.172,262.984,361.418z
		 M263.549,359.265c8.074-2.835,22.631-10.885,22.631-20.635c0-1.698-0.455-2.605-2.393-2.605
		C276.512,336.023,266.621,348.494,263.549,359.265z"/>
</g>
</svg>
